<?xml version="1.0" encoding="iso-8859-1"?>
<!-- Uploaded to: SVG Repo, www.svgrepo.com, Generator: SVG Repo Mixer Tools -->
<svg version="1.1" id="Layer_1" xmlns="http://www.w3.org/2000/svg" xmlns:xlink="http://www.w3.org/1999/xlink" 
	 viewBox="0 0 512 512" xml:space="preserve">
<g>
	<path style="fill:#0BA4E0;" d="M432.592,335.984l-14.064-7.632c52-95.904,2.96-158.272,0.832-160.88l12.384-10.144
		C434.144,160.288,489.92,230.272,432.592,335.984z"/>
	<path style="fill:#0BA4E0;" d="M463.76,359.2l-14.064-7.632c66.88-123.328,3.568-203.6,0.832-206.96l12.384-10.144
		C463.648,135.376,535.968,226.064,463.76,359.2z"/>
	<path style="fill:#0BA4E0;" d="M79.424,335.984c-57.344-105.712-1.568-175.696,0.832-178.64l12.384,10.144
		c-2.128,2.608-51.184,64.976,0.832,160.88L79.424,335.984z"/>
	<path style="fill:#0BA4E0;" d="M48.24,359.2c-72.208-133.12,0.112-223.808,0.848-224.72l12.384,10.144
		c-2.736,3.36-66.048,83.632,0.832,206.96L48.24,359.2z"/>
</g>
<rect x="139.392" style="fill:#333333;" width="233.2" height="512"/>
<rect x="179.056" y="88.352" style="fill:#FFFFFF;" width="40.816" height="15.312"/>
<rect x="179.056" y="58.976" style="fill:#0BA4E0;" width="154.288" height="15.312"/>
<rect x="235.584" y="88.352" style="fill:#D6D6D6;" width="40.816" height="15.312"/>
<rect x="235.584" y="441.68" style="fill:#0BA4E0;" width="40.816" height="15.312"/>
<rect x="292.112" y="88.352" style="fill:#FFFFFF;" width="40.816" height="15.312"/>
</svg>